<?xml version="1.0" encoding="UTF-8"?>
<svg version="1.1" viewBox="0 0 2048 1171" width="2504" height="1432" xmlns="http://www.w3.org/2000/svg">
<path transform="translate(0)" d="m0 0h2048v1171h-2048z"/>
<path transform="translate(984,127)" d="m0 0 9 1 6 4 5 6 4 10 4 16 5 10 7 9 5 3 36 5 21 5 15 5 16 6 20 8 12 5 17 9 14 9 14 10 5 4 3 1 4-16 3-14-9 6-9 4h-8l-5-3v-2l-4-2-1-3v-9l4-10 7-11 9-8 14-7 6-1h8l7 1 10 6 7 8 6 15 1 67 2 7 5 5 6 4 9 1 24-4 7-2 22-3h22l9 4 8 7 6 8 2 7v11l-3 10-5 9-6 7-5 3-11 2-7-3-5-7-2-11-12 2-12 5-6 2 4 10 8 13 12 21 12 25 9 23 7 20 6 8 13 12 3 3v2l4 2 14 12 14 11 12 10 11 8 12 10 7 10 5 10 1 4v19l-2 8-7 13-11 11-14 10-14 11-12 11-13 12-6 4-13 10-9 8-6 9-9 20-8 17-8 16-6 11-18 28 6 3 13 4 13 3-1-9 4-7 8-7 9 1 11 7 7 8 4 8 2 11-1 11-2 6-6 8-8 6-8 3h-19l-26-4-26-5h-18l-5 5-3 9-1 59-6 14-11 12-10 5h-16l-10-4-12-9-8-11-4-8-1-9 2-5 7-6 3-1h8l12 6 3 2v2h2l-7-27-1-7-11 6-12 7-14 8-11 5-16 7-27 9-14 4-15 4-20 4-20 2-6 2-11 11-8 12-4 7-4 10-3 12-4 8-8 7-3 1h-9l-8-5-6-7-6-21-6-11-9-13-9-10-3-2-11-2-17-2-17-3-6-2-10-2-33-11-12-5-24-11-19-10-14-8h-1l-7 28-1 2 5-3 5-4 8-3h7l10 7 3 5 1 7-3 8-8 12-9 8-10 6-12 3h-10l-9-3-9-7-7-10-3-8-1-7-1-58-4-7-8-4h-13l-23 4-7 2-20 3h-19l-9-3-7-4-8-8-4-10v-13l4-10 7-10h2l2-4 10-6 7-1 8 5 5 6v12l15-4 13-5 3-1-4-8-3-3-6-11-8-13-14-26-8-18-6-16-6-8-20-16-12-9-11-9-9-7-10-8-8-6-11-8-10-9-8-10-5-15v-14l8-18 12-13 10-9 16-12 10-8 12-9 13-12 8-7 13-12 4-7 10-30 11-25 11-22 15-25 5-9-9-6-9-3h-13l-2 12-6 7-4 1h-7l-5-2-8-7-6-8-5-11v-17l5-9 9-9 11-5 4-1h11l14 4 16 4 20 3h15l8-4 8-9 3-8v-57l2-12 6-12 7-7 8-4h19l9 3 8 5 15 15 5 9v13l-5 6-9 5-8-1-12-6-4-4-3-1 7 31v2l5-3 9-8 10-7 10-6 20-9 8-4 10-4 14-6 16-6 23-7 17-4 39-6v-2h2l2-5 5-8 5-13 6-18 5-7 7-4z" fill="#FEFEFD"/>
<path transform="translate(0)" d="m0 0h72l1 13v293l-1 252-1 145-1 468h-70z" fill="#FEFEFD"/>
<path transform="translate(1977)" d="m0 0h71v1171h-68l-1-41-1-130-1-699z" fill="#FFFFFE"/>
<path transform="translate(868,478)" d="m0 0 4 5 7 10 10 15v2h2l8 12 6 8 6 9v2h2l4 6 14 20 2 4 3 3 10 14 8 12 10 14 5 6 8 5 6 2 9-1 7-2 9-9 9-13 11-15 12-17 16-22 8-12 8-11 10-14 7-10 12-17 3-5 3 1 5 11 4 14 1 7 1 51 1 7 1 1v18l-2 9-2 15-6 16-9 17-8 10-7 9-9 8-15 11-23 11-6 3-10 2-9 5-6 10-10 19-7 6-6 2-8-6-5-6-4-7-3-8-5-9-3-3-10-4-13-4-12-5-12-7-16-12-13-13-12-17-9-17-4-11v-107l5-16 6-11z"/>
<path transform="translate(984,368)" d="m0 0 7 1 8 7 5 9 4 10 4 6 5 4 12 5 9 3 12 5 15 9 4 4-12 17-7 10-8 11-11 16-21 30-8 12-8 11-7 10-4-4-13-19-11-15-4-6-10-14-11-16-7-10-12-17-9-13-1-5 6-5 19-9 20-7 9-5 5-6 4-10 5-10 3-3h2l1-3z"/>
<path transform="translate(1058,236)" d="m0 0 22 6 21 7 8 4 16 7 19 10 13 8 12 8 14 11-1 6-8 18-8 16-14 32-5 14-7 3-10 2-6-1-6-4-5-6-6-18-3-12-5-16-8-24-9-22-8-17-8-16-5-9-3-4z"/>
<path transform="translate(910,237)" d="m0 0 4 1-8 16-15 31-10 24-6 16-10 31-4 16-4 8-8 7h-15l-6-2-3-4-7-19-16-35-11-25-1-6 7-6 5-2v-2l13-8 21-12 16-8 27-11 21-7 9-2z"/>
<path transform="translate(839,721)" d="m0 0h8l6 4 7 7 4 10 6 21 9 27 4 10 5 13 19 38 1 3-9-2-15-3-17-6-20-8-17-8-17-9-7-5-9-5-4-3 1-7 8-16 3-5 4-10 10-22 3-9 4-11z"/>
<path transform="translate(1125,722)" d="m0 0 10 1 10 2 3 5 6 16 11 25 9 21 5 11-2 4-11 8-21 11-11 5-13 6-11 4-14 5-7 2-20 5-5 1 2-5 10-18 8-16 6-16 7-18 5-13 6-24 4-11 6-7z"/>
<path transform="translate(688,404)" d="m0 0h1l1 23 6 30 6 21 9 27 3 8-15 7-19 8-15 6-11 4h-1v-15l6-34 6-22 13-39 4-9z"/>
<path transform="translate(1284,407)" d="m0 0 2 1 7 20 7 17 4 12 5 17 5 21 3 19 3 20-1 4-25-10-8-3-12-5-16-7 2-6 9-24 3-9 3-12 5-25 3-19z"/>
<path transform="translate(779,590)" d="m0 0 1 3 5 23 9 25 8 16 2 8-4 18-2 6-36-6-20-4-4-2 4-16 4-11 8-19 10-20 7-11z"/>
<path transform="translate(1192,589)" d="m0 0 4 2 8 13 6 10 9 19 4 10 8 21 3 10v4l-18 4-7 2-26 3-10 1-3-12v-17l8-16 3-9 5-13 5-17 1-7z"/>
<path transform="translate(753,317)" d="m0 0 3 1 8 16 7 16 6 13 7 17 1 7-25 7-29 10-6 1-1-41v-20l4-6 11-9 13-11z"/>
<path transform="translate(1219,317)" d="m0 0 9 6 12 11 7 8 1 2v36l-2 25-27-9-22-7-9-2 1-7 8-19 12-27 9-16z"/>
<path transform="translate(986,201)" d="m0 0 4 5 10 14 8 12 7 10 8 12-2 4-14 13-8 7-11 11-4-2-3-2v-2l-4-2-8-8-10-8-9-8 1-6 9-14 6-8 7-10 11-16z"/>
<path transform="translate(794,424)" d="m0 0h5l3 9 2 13-7 17-10 17-12 7-16 8-9 3-11-27-5-19-1-7 7-3 24-9 20-6z"/>
<path transform="translate(1174,424)" d="m0 0h7l32 10 17 7 9 3-2 13-6 18-5 12-5 11-9-3-4-3-22-11-10-19-7-15 1-12z"/>
<path transform="translate(654,599)" d="m0 0 5 1 18 8 19 8 17 6 1 3-6 17-3 10-6 21-4 19-2 20-4-4-8-16-3-8-4-9-10-29-5-19z"/>
<path transform="translate(1314,600)" d="m0 0h3l-1 10-5 23-4 16-8 24-4 10-7 15-6 13-2-3-4-24-5-21-5-16-7-19-2-4 20-8 13-5 10-5z"/>
<path transform="translate(986,816)" d="m0 0h2l7 8 13 12 9 7 4 4-6 12-7 10-9 13-10 15-1 2h-2l-9-11-12-17-8-11-5-8-2-5 25-20z"/>
<path transform="translate(731,715)" d="m0 0 18 4 17 3 18 3-1 6-7 17-4 10-8 16-5 9-2 4-5-1-12-9-5-4-9-12-1-8 4-27 1-10z"/>
<path transform="translate(1240,716)" d="m0 0 2 1 4 29 1 11 1 4-9 11-11 10-11 6h-2l-5-9-4-7-4-10-10-24-4-11 4-1 18-3 11-3 12-2z"/>
<path transform="translate(1977)" d="m0 0h1l1 246 1 284v293l1 28 1 104 1 8v208h-3l-1-41-1-130-1-699z" fill="#D1E8E9"/>
<path transform="translate(929,290)" d="m0 0 4 2 13 12 8 7 9 11 2 6-3 8-5 6-12 6-12 3-11 3-17 5 1-7 5-18 4-12 6-15 6-13z"/>
<path transform="translate(1042,289)" d="m0 0 3 3 4 8 6 16 7 20 5 20 1 3-9-3-14-4-19-5-8-5-8-8-2-6 1-5 7-8z"/>
<path transform="translate(908,756)" d="m0 0 28 8 17 4 10 4 1 9-3 6-4 5h-2l-2 4-14 13-7 6-4-2-5-10-4-10-6-16-4-12-2-8z"/>
<path transform="translate(1061,757)" d="m0 0h3l-3 14-6 16-9 23-4 7-8-6-16-16-8-11-2-4 1-6 4-4 17-5 14-3 13-3z"/>
<path transform="translate(70)" d="m0 0h2l1 13v293l-1 252-1 145-2-4z" fill="#D1E8E9"/>
<path transform="translate(1239,547)" d="m0 0 9 3 5 3 16 6 6 3 13 4 5 2-2 2-13 4-8 4-15 6-12 5-4-2-6-8-5-6-2-7 6-10z"/>
<path transform="translate(732,547)" d="m0 0 12 15 2 3-1 4-7 11-6 8-7-1-23-9-11-5-12-4 1-2 10-3 20-7 16-7z"/>
<path transform="translate(69,748)" d="m0 0h1v423h-3v-177l1-52v-170z" fill="#D1E8E9"/>
<path transform="translate(1363,514)" d="m0 0 8 6 11 10 17 12v2l3 1-4 1h-16l-12-3-5-2-2-12z"/>
<path transform="translate(1390,583)" d="m0 0h13l-5 5-17 12-17 10-3 2 3-25 2-1z"/>
<path transform="translate(609,514)" d="m0 0 1 4-1 18-2 4-20 5h-16l4-4 11-8 10-9 12-9z"/>
<path transform="translate(573,583)" d="m0 0 24 3 11 2 1 1 2 25-16-12-5-5-11-8-6-5z" fill="#050505"/>
<path transform="translate(1193,527)" d="m0 0 9 5-2 5-4 5-3 1-1-2v-13z"/>
<path transform="translate(779,527)" d="m0 0 1 3-2 12h-2l-4-6-2-4z"/>
</svg>
